<?xml version="1.0" encoding="utf-8"?>
<!-- Generator: Adobe Illustrator 28.2.0, SVG Export Plug-In . SVG Version: 6.00 Build 0)  -->
<svg version="1.1" id="레이어_1" xmlns="http://www.w3.org/2000/svg" xmlns:xlink="http://www.w3.org/1999/xlink" x="0px"
	 y="0px" viewBox="0 0 876.8 563.5" style="enable-background:new 0 0 876.8 563.5;" xml:space="preserve">
<style type="text/css">
	.st0{fill:url(#SVGID_1_);shape-rendering: auto;}
</style>
<g>
	
		<linearGradient id="SVGID_1_" gradientUnits="userSpaceOnUse" x1="798.2089" y1="59.6677" x2="147.9622" y2="390.985" gradientTransform="matrix(1 0 0 -1 0 563.5125)">
		<stop  offset="1.880787e-03" style="stop-color:#81FFE9"/>
		<stop  offset="8.120001e-02" style="stop-color:#8CDCE9"/>
		<stop  offset="0.178" style="stop-color:#97B8EA"/>
		<stop  offset="0.2758" style="stop-color:#A09CEA"/>
		<stop  offset="0.3736" style="stop-color:#A688EA"/>
		<stop  offset="0.4714" style="stop-color:#AA7CEA"/>
		<stop  offset="0.5694" style="stop-color:#AB78EA"/>
		<stop  offset="1" style="stop-color:#FFA0E9"/>
	</linearGradient>
	<path class="st0" d="M595,563.5c-28.7,0-57-4.3-84.2-12.9c-19-6-35.1-18.7-45.3-35.8L303.7,244.2l-86,157.2h83
		c44.7,0,81,36.3,81,81s-36.3,81-81,81H81c-28.6,0-55.1-15.1-69.7-39.7c-14.6-24.6-15.1-55.1-1.4-80.2L229.6,42.2
		c14-25.5,40.5-41.6,69.5-42.1c29-0.6,56.2,14.5,71.1,39.5l216.1,361.7c4,0.3,7.9,0.4,11.9,0.3c66-1.7,118.3-56.8,116.6-122.8
		S658,160.3,592,162c-7.3,0.2-14.5,1-21.6,2.5c-43.8,9.1-86.7-19-95.8-62.8c-9.1-43.8,19-86.7,62.8-95.8c16.5-3.4,33.5-5.4,50.4-5.8
		c38-1,75.1,5.5,110.2,19.3c33.9,13.3,64.5,32.9,91.1,58s47.6,54.8,62.6,88c15.6,34.4,24,71.1,25,109.1s-5.5,75.1-19.3,110.2
		c-13.3,33.9-32.8,64.5-58,91.1s-54.8,47.6-88,62.6c-34.4,15.6-71.1,24-109.1,25C599.9,563.5,597.4,563.5,595,563.5z"/>
</g>
</svg>
